<?xml version="1.0" encoding="utf-8"?>
<!-- Generator: Adobe Illustrator 21.1.0, SVG Export Plug-In . SVG Version: 6.00 Build 0)  -->
<svg version="1.1" id="Слой_1" xmlns="http://www.w3.org/2000/svg" xmlns:xlink="http://www.w3.org/1999/xlink" x="0px" y="0px"
	 viewBox="0 0 32 32" style="enable-background:new 0 0 32 32;" xml:space="preserve">
<style type="text/css">
	.st0{fill:#FFFFFF;}
	.st1{fill:#0096E6;}
	.st2{fill:#D0E8F9;}
</style>
<g id="globe-globe">
	<g>
		<path class="st0" d="M16,31.2C7.6,31.2,0.8,24.4,0.8,16C0.8,7.6,7.6,0.8,16,0.8"/>
		<path class="st1" d="M16,32c-4.3,0-8.3-1.7-11.3-4.7c-3-3-4.7-7-4.7-11.3c0-4.3,1.7-8.3,4.7-11.3c3-3,7-4.7,11.3-4.7v1.5
			c-3.9,0-7.5,1.5-10.2,4.2C3.1,8.5,1.6,12.1,1.6,16c0,3.9,1.5,7.5,4.2,10.2s6.4,4.2,10.2,4.2L16,32L16,32z"/>
	</g>
	<g>
		<path class="st2" d="M16,0.8c8.4,0,15.2,6.8,15.2,15.2c0,8.4-6.8,15.2-15.2,15.2"/>
		<path class="st1" d="M16,32C16,32,16,32,16,32l0-1.5c0,0,0,0,0,0c3.9,0,7.5-1.5,10.2-4.2c2.7-2.7,4.2-6.4,4.2-10.2
			C30.4,8,24,1.6,16,1.6V0c8.8,0,16,7.2,16,16c0,4.3-1.7,8.3-4.7,11.3C24.3,30.3,20.3,32,16,32L16,32z"/>
	</g>
	<g>
		<polygon class="st1" points="16.8,31.2 15.2,31.2 15.2,0.9 16.8,0.9 		"/>
	</g>
	<g>
		<polygon class="st1" points="31.1,16.8 0.8,16.8 0.8,15.2 31.1,15.2 		"/>
	</g>
	<g>
		<path class="st1" d="M14.6,31.7C14.3,31.5,7.4,26,7.4,16c0-10,6.8-15.5,7.1-15.7l0.9,1.2C15.4,1.5,8.9,6.7,8.9,16
			c0,9.3,6.5,14.5,6.6,14.6L14.6,31.7L14.6,31.7z"/>
	</g>
	<g>
		<path class="st1" d="M17.4,31.7l-0.9-1.2c0.1-0.1,6.6-5.3,6.6-14.6c0-9.3-6.5-14.5-6.6-14.6l0.9-1.2C17.7,0.5,24.6,6,24.6,16
			C24.6,26,17.7,31.5,17.4,31.7L17.4,31.7z"/>
	</g>
	<g>
		<path class="st1" d="M16,11.9c-9.6,0-12.3-5.1-12.4-5.3l1.4-0.7C5,6.1,7.4,10.4,16,10.4c8.6,0,11-4.3,11.1-4.5l1.4,0.7
			C28.3,6.8,25.6,11.9,16,11.9L16,11.9z"/>
	</g>
	<g>
		<path class="st1" d="M4.9,26.1l-1.4-0.7c0.1-0.2,2.8-5.3,12.4-5.3c9.6,0,12.3,5.1,12.4,5.3L27,26.1c-0.1-0.2-2.4-4.5-11-4.5
			C7.4,21.6,5,25.9,4.9,26.1L4.9,26.1z"/>
	</g>
</g>
</svg>
